# xmcd
#
# Track frame offsets:
#	150
#	14903
#	29919
#	40547
#	56331
#	71474
#	86406
#	101895
#	117825
#	129425
#
# Disc length: 1904 seconds
#
# Revision: 0
# Processed by: cddbd v1.5.2PL0 Copyright (c) Steve Scherf et al.
# Submitted via: EasyCDDAExtractor 16.0.6.1
#
DISCID=85076e0a
DTITLE=Συλλογικός δίσκος - Λαϊκό τραγούδι 1954-1967, 1961-3
DYEAR=2008
DGENRE=Λαϊκή
TTITLE0=Περπινιάδης Βαγγέλης - Το τάβλι (Τα νέα της Αλεξάνδρας) [Κώστας Γιαννί
TTITLE0=δης]
TTITLE1=Ζαμπέτας Γιώργος-Κούρτη Ρία - Αν μάς σπάσουν το μπουζούκι [Γιώργος Ζαμ
TTITLE1=πέτας-Ευτυχία Παπαγιαννοπούλου]
TTITLE2=Λίντα Μαίρη-Χιώτης Μανώλης - Παρτίδες [Μανώλης Χιώτης-Χαράλαμπος Βασιλ
TTITLE2=ειάδης]
TTITLE3=Αναγνωστάκης Πέτρος - Ήρθα κι απόψε στα σκαλοπάτια σου [Γ.Ζαμπέτας-Χαρ
TTITLE3=Βασιλειάδης/Νίκ.Μουρκάκος]
TTITLE4=Καζαντζίδης Στέλιος-Μαρινέλλα - Την πόρτα μη μού κλείνεις [Νίκος Μουρκ
TTITLE4=άκος-Γιώργος Λαύκας]
TTITLE5=Μπέλλου Σωτηρία - Μαραίνεται η καρδούλα μου [Σωτηρία Μπέλλου]
TTITLE6=Καζαντζίδης Στέλιος - Πριν μού φύγεις γλυκειά μου [Απόστολος Καλδάρας]
TTITLE7=Αγγελόπουλος Μανώλης - Κελί βαρύ και σκοτεινό [Γιώργος Λαύκας]
TTITLE8=Μπιθικώτσης Γρηγόρης - Δεν έχω βγάλει το σχολείο [Μπάμπης Μπακάλης-Γιώ
TTITLE8=ργος Μουφλουζέλης]
TTITLE9=Μιχαλόπουλος Πάνος - Σε διώξαν απ' τον Πειραιά [Νίκος Δαλέζιος]
EXTD=
EXTT0=
EXTT1=
EXTT2=
EXTT3=
EXTT4=
EXTT5=
EXTT6=
EXTT7=
EXTT8=
EXTT9=
PLAYORDER=
